<?xml version="1.0" encoding="UTF-8" standalone="no"?>
<!-- Created with Inkscape (http://www.inkscape.org/) -->

<svg
   xmlns:dc="http://purl.org/dc/elements/1.1/"
   xmlns:cc="http://creativecommons.org/ns#"
   xmlns:rdf="http://www.w3.org/1999/02/22-rdf-syntax-ns#"
   xmlns:svg="http://www.w3.org/2000/svg"
   xmlns="http://www.w3.org/2000/svg"
   xmlns:xlink="http://www.w3.org/1999/xlink"
   xmlns:sodipodi="http://sodipodi.sourceforge.net/DTD/sodipodi-0.dtd"
   xmlns:inkscape="http://www.inkscape.org/namespaces/inkscape"
   width="744.09448819"
   height="1052.3622047"
   id="svg30732"
   version="1.1"
   inkscape:version="0.48.1 r9760"
   sodipodi:docname="bitcoin_accepted_here.svg">
  <defs
     id="defs30734">
    <linearGradient
       inkscape:collect="always"
       xlink:href="#SVGID_1_"
       id="linearGradient30653"
       gradientUnits="userSpaceOnUse"
       x1="107.6079"
       y1="303.74799"
       x2="107.6079"
       y2="366.75" />
    <linearGradient
       y2="366.75"
       x2="107.6079"
       y1="303.74799"
       x1="107.6079"
       gradientUnits="userSpaceOnUse"
       id="SVGID_1_">
      <stop
         id="stop468"
         style="stop-color:#FFFFFF"
         offset="0" />
      <stop
         id="stop470"
         style="stop-color:#D9D9D9"
         offset="1" />
    </linearGradient>
  </defs>
  <sodipodi:namedview
     id="base"
     pagecolor="#ffffff"
     bordercolor="#000000"
     borderopacity="1.0"
     inkscape:pageopacity="0"
     inkscape:pageshadow="0"
     inkscape:zoom="0.53622223"
     inkscape:cx="372.04724"
     inkscape:cy="551.15716"
     inkscape:document-units="px"
     inkscape:current-layer="layer1"
     showgrid="false"
     inkscape:window-width="574"
     inkscape:window-height="388"
     inkscape:window-x="64"
     inkscape:window-y="169"
     inkscape:window-maximized="0" />
  <metadata
     id="metadata30737">
    <rdf:RDF>
      <cc:Work
         rdf:about="">
        <dc:format>image/svg+xml</dc:format>
        <dc:type
           rdf:resource="http://purl.org/dc/dcmitype/StillImage" />
        <dc:title></dc:title>
      </cc:Work>
    </rdf:RDF>
  </metadata>
  <g
     inkscape:label="Layer 1"
     inkscape:groupmode="layer"
     id="layer1">
    <g
       id="g463"
       transform="translate(242.392,197.11418)"
       inkscape:export-xdpi="84.375"
       inkscape:export-ydpi="84.375">
      <g
         id="g465">
        <linearGradient
           y2="366.75"
           x2="107.6079"
           y1="303.74799"
           x1="107.6079"
           gradientUnits="userSpaceOnUse"
           id="linearGradient30671">
          <stop
             id="stop30673"
             style="stop-color:#FFFFFF"
             offset="0" />
          <stop
             id="stop30675"
             style="stop-color:#D9D9D9"
             offset="1" />
        </linearGradient>
        <path
           inkscape:connector-curvature="0"
           style="fill:url(#linearGradient30653)"
           id="path472"
           d="M 177.234,366.75 H 37.981 c -7.649,0 -13.875,-6.226 -13.875,-13.875 v -35.252 c 0,-7.65 6.226,-13.875 13.875,-13.875 h 139.253 c 7.65,0 13.875,6.225 13.875,13.875 v 35.252 c 0,7.649 -6.224,13.875 -13.875,13.875 l 0,0 z" />
        <path
           style="fill:#b3b3b3"
           inkscape:connector-curvature="0"
           id="path474"
           d="m 177.234,303.248 c 7.905,0 14.374,6.469 14.374,14.374 v 35.252 c 0,7.905 -6.469,14.374 -14.374,14.374 H 37.982 c -7.905,0 -14.374,-6.469 -14.374,-14.374 v -35.252 c 0,-7.905 6.469,-14.374 14.374,-14.374 h 139.252 m 0,1 H 37.982 c -7.374,0 -13.374,6 -13.374,13.374 v 35.252 c 0,7.374 6,13.374 13.374,13.374 h 139.252 c 7.374,0 13.374,-6 13.374,-13.374 v -35.252 c 0,-7.374 -6,-13.374 -13.374,-13.374 l 0,0 z" />
      </g>
      <g
         id="g476">
        <g
           id="g478">
          <circle
             style="fill:#ffffff"
             sodipodi:ry="15.301"
             sodipodi:rx="15.301"
             sodipodi:cy="329.29401"
             sodipodi:cx="49.608002"
             d="m 64.909001,329.29401 c 0,8.45051 -6.850491,15.301 -15.300999,15.301 -8.450509,0 -15.301,-6.85049 -15.301,-15.301 0,-8.45051 6.850491,-15.301 15.301,-15.301 8.450508,0 15.300999,6.85049 15.300999,15.301 z"
             id="circle480"
             r="15.301"
             cy="329.29401"
             cx="49.608002" />
          <path
             style="fill:#ffffff"
             inkscape:connector-curvature="0"
             id="path482"
             d="m 56.354,327.113 c 0.305,-2.037 -1.246,-3.132 -3.366,-3.862 l 0.688,-2.76 -1.679,-0.419 -0.672,2.687 c -0.44,-0.109 -0.894,-0.213 -1.345,-0.316 l 0.674,-2.704 -1.678,-0.419 -0.689,2.759 c -0.363,-0.083 -0.723,-0.165 -1.071,-0.252 l 10e-4,-0.008 -2.315,-0.578 -0.446,1.793 c 0,0 1.246,0.285 1.219,0.303 0.681,0.171 0.804,0.621 0.784,0.979 l -0.785,3.143 c 0.047,0.011 0.108,0.028 0.175,0.056 -0.056,-0.015 -0.115,-0.03 -0.178,-0.045 l -1.097,4.404 c -0.084,0.206 -0.296,0.516 -0.771,0.398 0.017,0.023 -1.221,-0.305 -1.221,-0.305 l -0.834,1.922 2.186,0.546 c 0.405,0.101 0.806,0.208 1.197,0.308 l -0.694,2.791 1.677,0.419 0.688,-2.761 c 0.458,0.123 0.902,0.239 1.338,0.348 l -0.686,2.748 1.68,0.419 0.695,-2.786 c 2.864,0.542 5.017,0.323 5.923,-2.268 0.73,-2.085 -0.035,-3.288 -1.543,-4.073 1.098,-0.255 1.924,-0.976 2.145,-2.467 z m -3.836,5.381 c -0.519,2.086 -4.029,0.958 -5.17,0.675 l 0.923,-3.696 c 1.137,0.283 4.789,0.845 4.247,3.021 z m 0.518,-5.411 c -0.474,1.896 -3.396,0.933 -4.343,0.697 l 0.835,-3.354 c 0.949,0.237 4.002,0.678 3.508,2.657 z" />
          <path
             style="fill:#ffffff"
             inkscape:connector-curvature="0"
             id="path484"
             d="m 79.157,323.249 c 1.241,0 2.312,0.223 3.214,0.659 0.905,0.441 1.653,1.036 2.253,1.782 0.591,0.752 1.032,1.63 1.315,2.636 0.281,1.009 0.424,2.094 0.424,3.255 0,1.782 -0.326,3.467 -0.986,5.056 -0.659,1.59 -1.555,2.97 -2.693,4.146 -1.137,1.176 -2.48,2.102 -4.029,2.786 -1.547,0.686 -3.228,1.027 -5.033,1.027 -0.234,0 -0.644,-0.006 -1.223,-0.019 -0.582,-0.012 -1.247,-0.071 -1.994,-0.172 -0.75,-0.105 -1.545,-0.26 -2.383,-0.467 -0.838,-0.205 -1.634,-0.49 -2.383,-0.853 l 6.702,-28.163 6.003,-0.931 -2.4,9.994 c 0.515,-0.232 1.03,-0.411 1.549,-0.542 0.517,-0.127 1.07,-0.194 1.664,-0.194 z m -5.035,16.584 c 0.903,0 1.755,-0.222 2.556,-0.659 0.803,-0.437 1.496,-1.026 2.075,-1.762 0.58,-0.737 1.04,-1.569 1.375,-2.5 0.334,-0.928 0.503,-1.898 0.503,-2.908 0,-1.238 -0.206,-2.205 -0.619,-2.903 -0.412,-0.696 -1.177,-1.046 -2.286,-1.046 -0.364,0 -0.832,0.069 -1.412,0.193 -0.583,0.132 -1.104,0.404 -1.572,0.814 l -2.555,10.614 c 0.154,0.026 0.291,0.053 0.406,0.076 0.113,0.026 0.239,0.046 0.364,0.059 0.133,0.015 0.284,0.021 0.468,0.021 0.182,0.001 0.412,0.001 0.697,0.001 z" />
          <path
             style="fill:#ffffff"
             inkscape:connector-curvature="0"
             id="path486"
             d="m 92.589,344.054 h -5.733 l 4.842,-20.375 h 5.774 l -4.883,20.375 z m 2.791,-22.857 c -0.8,0 -1.525,-0.239 -2.17,-0.715 -0.648,-0.476 -0.97,-1.206 -0.97,-2.19 0,-0.542 0.11,-1.05 0.327,-1.529 0.222,-0.478 0.512,-0.891 0.874,-1.24 0.362,-0.348 0.781,-0.625 1.257,-0.834 0.48,-0.205 0.99,-0.309 1.532,-0.309 0.801,0 1.523,0.239 2.17,0.716 0.644,0.479 0.968,1.21 0.968,2.189 0,0.543 -0.11,1.054 -0.331,1.532 -0.218,0.478 -0.508,0.89 -0.87,1.24 -0.359,0.347 -0.782,0.624 -1.258,0.831 -0.479,0.21 -0.987,0.309 -1.529,0.309 z" />
          <path
             style="fill:#ffffff"
             inkscape:connector-curvature="0"
             id="path488"
             d="m 102.495,318.604 6.007,-0.93 -1.476,6.005 h 6.433 l -1.162,4.726 h -6.393 l -1.702,7.128 c -0.158,0.595 -0.246,1.149 -0.272,1.664 -0.027,0.519 0.038,0.963 0.192,1.338 0.155,0.375 0.432,0.664 0.833,0.87 0.4,0.207 0.974,0.312 1.724,0.312 0.618,0 1.222,-0.058 1.805,-0.175 0.579,-0.114 1.165,-0.275 1.76,-0.484 l 0.427,4.418 c -0.774,0.285 -1.613,0.53 -2.518,0.735 -0.906,0.207 -1.977,0.309 -3.216,0.309 -1.782,0 -3.164,-0.264 -4.146,-0.791 -0.982,-0.53 -1.678,-1.255 -2.094,-2.173 -0.409,-0.914 -0.593,-1.968 -0.541,-3.155 0.052,-1.19 0.231,-2.441 0.541,-3.758 l 3.798,-16.039 z" />
          <path
             style="fill:#ffffff"
             inkscape:connector-curvature="0"
             id="path490"
             d="m 113.205,335.921 c 0,-1.756 0.283,-3.41 0.852,-4.96 0.567,-1.551 1.384,-2.906 2.443,-4.07 1.057,-1.158 2.342,-2.075 3.855,-2.749 1.508,-0.67 3.194,-1.008 5.054,-1.008 1.163,0 2.203,0.109 3.117,0.33 0.92,0.223 1.75,0.51 2.5,0.87 l -1.978,4.498 c -0.516,-0.21 -1.051,-0.395 -1.606,-0.562 -0.556,-0.17 -1.232,-0.252 -2.033,-0.252 -1.914,0 -3.427,0.659 -4.553,1.974 -1.122,1.317 -1.688,3.087 -1.688,5.31 0,1.317 0.285,2.381 0.855,3.195 0.566,0.814 1.614,1.22 3.137,1.22 0.751,0 1.475,-0.078 2.17,-0.231 0.699,-0.155 1.316,-0.35 1.859,-0.581 l 0.429,4.609 c -0.725,0.282 -1.524,0.536 -2.402,0.759 -0.88,0.215 -1.926,0.325 -3.14,0.325 -1.603,0 -2.957,-0.234 -4.067,-0.695 -1.109,-0.469 -2.027,-1.091 -2.749,-1.879 -0.726,-0.791 -1.248,-1.714 -1.57,-2.773 -0.322,-1.06 -0.485,-2.171 -0.485,-3.33 z" />
          <path
             style="fill:#ffffff"
             inkscape:connector-curvature="0"
             id="path492"
             d="m 138.676,344.597 c -1.369,0 -2.559,-0.207 -3.566,-0.621 -1.005,-0.412 -1.837,-0.991 -2.497,-1.742 -0.659,-0.748 -1.152,-1.634 -1.49,-2.654 -0.338,-1.019 -0.501,-2.147 -0.501,-3.386 0,-1.552 0.249,-3.104 0.753,-4.652 0.501,-1.55 1.244,-2.942 2.229,-4.181 0.977,-1.241 2.182,-2.256 3.6,-3.046 1.418,-0.786 3.048,-1.181 4.879,-1.181 1.344,0 2.525,0.209 3.548,0.621 1.019,0.413 1.856,0.997 2.52,1.743 0.654,0.752 1.152,1.634 1.486,2.655 0.339,1.018 0.505,2.15 0.505,3.388 0,1.548 -0.247,3.101 -0.733,4.652 -0.489,1.545 -1.213,2.941 -2.17,4.183 -0.954,1.238 -2.148,2.252 -3.584,3.039 -1.432,0.787 -3.093,1.182 -4.979,1.182 z m 2.864,-16.579 c -0.85,0 -1.602,0.247 -2.244,0.733 -0.646,0.493 -1.188,1.113 -1.625,1.861 -0.442,0.749 -0.771,1.569 -0.992,2.459 -0.219,0.893 -0.327,1.735 -0.327,2.538 0,1.291 0.209,2.299 0.619,3.023 0.416,0.721 1.161,1.083 2.247,1.083 0.854,0 1.602,-0.244 2.248,-0.737 0.643,-0.489 1.185,-1.11 1.626,-1.858 0.438,-0.747 0.77,-1.569 0.991,-2.46 0.218,-0.89 0.327,-1.738 0.327,-2.538 0,-1.289 -0.207,-2.298 -0.622,-3.021 -0.413,-0.721 -1.162,-1.083 -2.248,-1.083 z" />
          <path
             style="fill:#ffffff"
             inkscape:connector-curvature="0"
             id="path494"
             d="m 156.39,344.054 h -5.739 l 4.844,-20.375 h 5.775 l -4.88,20.375 z m 2.785,-22.857 c -0.8,0 -1.524,-0.239 -2.167,-0.715 -0.646,-0.476 -0.97,-1.206 -0.97,-2.19 0,-0.542 0.11,-1.05 0.33,-1.529 0.218,-0.478 0.51,-0.891 0.872,-1.24 0.359,-0.348 0.784,-0.625 1.258,-0.834 0.478,-0.205 0.987,-0.309 1.528,-0.309 0.803,0 1.527,0.239 2.172,0.716 0.646,0.479 0.971,1.21 0.971,2.189 0,0.543 -0.115,1.054 -0.333,1.532 -0.216,0.478 -0.507,0.89 -0.869,1.24 -0.362,0.347 -0.781,0.624 -1.258,0.831 -0.48,0.21 -0.988,0.309 -1.534,0.309 z" />
          <path
             style="fill:#ffffff"
             inkscape:connector-curvature="0"
             id="path496"
             d="m 165.399,324.607 c 0.435,-0.128 0.921,-0.28 1.449,-0.447 0.531,-0.165 1.123,-0.321 1.786,-0.461 0.654,-0.144 1.395,-0.26 2.207,-0.351 0.813,-0.093 1.738,-0.138 2.767,-0.138 3.025,0 5.108,0.881 6.261,2.638 1.15,1.755 1.349,4.158 0.603,7.204 l -2.638,11.001 h -5.772 l 2.557,-10.769 c 0.156,-0.673 0.278,-1.323 0.369,-1.958 0.091,-0.629 0.085,-1.185 -0.021,-1.664 -0.103,-0.476 -0.343,-0.863 -0.716,-1.164 -0.378,-0.297 -0.949,-0.444 -1.725,-0.444 -0.748,0 -1.509,0.081 -2.284,0.235 l -3.759,15.764 h -5.774 l 4.69,-19.446 z" />
          <path
             style="fill:#ffffff"
             inkscape:connector-curvature="0"
             id="path498"
             d="m 95.88,356.199 -1.125,2.043 h -1.217 c 0.857,-1.546 1.693,-2.97 2.509,-4.271 0.814,-1.301 1.62,-2.529 2.416,-3.686 h 1.091 c 0.115,0.574 0.22,1.154 0.315,1.739 0.096,0.586 0.189,1.2 0.281,1.843 0.092,0.643 0.18,1.324 0.265,2.044 0.084,0.719 0.172,1.496 0.264,2.33 h -1.125 c -0.038,-0.345 -0.073,-0.69 -0.104,-1.039 -0.03,-0.348 -0.065,-0.683 -0.104,-1.004 H 95.88 z m 3.364,-0.895 c -0.062,-0.62 -0.133,-1.236 -0.213,-1.849 -0.08,-0.613 -0.174,-1.244 -0.281,-1.895 -0.268,0.391 -0.601,0.894 -0.999,1.51 -0.397,0.616 -0.85,1.36 -1.354,2.233 h 2.847 z" />
          <path
             style="fill:#ffffff"
             inkscape:connector-curvature="0"
             id="path500"
             d="m 104.771,358.414 c -0.498,0 -0.936,-0.072 -1.314,-0.218 -0.378,-0.146 -0.694,-0.352 -0.947,-0.62 -0.253,-0.268 -0.442,-0.591 -0.568,-0.97 -0.126,-0.379 -0.189,-0.806 -0.189,-1.28 0,-0.688 0.109,-1.347 0.327,-1.975 0.219,-0.627 0.528,-1.183 0.93,-1.664 0.402,-0.482 0.886,-0.867 1.453,-1.154 0.565,-0.287 1.197,-0.431 1.894,-0.431 0.597,0 1.073,0.062 1.43,0.184 0.355,0.123 0.61,0.237 0.763,0.345 l -0.459,0.919 c -0.176,-0.115 -0.415,-0.225 -0.717,-0.328 -0.303,-0.103 -0.66,-0.154 -1.074,-0.154 -0.527,0 -1.002,0.124 -1.423,0.373 -0.421,0.249 -0.777,0.57 -1.068,0.964 -0.29,0.395 -0.513,0.838 -0.665,1.332 -0.153,0.493 -0.229,0.981 -0.229,1.464 0,1.492 0.646,2.238 1.939,2.238 0.275,0 0.522,-0.019 0.74,-0.058 0.219,-0.038 0.412,-0.082 0.58,-0.132 0.168,-0.05 0.317,-0.104 0.448,-0.166 0.13,-0.062 0.244,-0.115 0.344,-0.161 l 0.138,0.965 c -0.092,0.053 -0.212,0.11 -0.361,0.172 -0.149,0.062 -0.323,0.119 -0.522,0.172 -0.199,0.054 -0.421,0.098 -0.666,0.132 -0.249,0.034 -0.509,0.051 -0.784,0.051 z" />
          <path
             style="fill:#ffffff"
             inkscape:connector-curvature="0"
             id="path502"
             d="m 111.244,358.414 c -0.498,0 -0.936,-0.072 -1.314,-0.218 -0.378,-0.146 -0.694,-0.352 -0.947,-0.62 -0.253,-0.268 -0.442,-0.591 -0.568,-0.97 -0.126,-0.379 -0.189,-0.806 -0.189,-1.28 0,-0.688 0.109,-1.347 0.327,-1.975 0.219,-0.627 0.528,-1.183 0.93,-1.664 0.402,-0.482 0.886,-0.867 1.453,-1.154 0.565,-0.287 1.197,-0.431 1.894,-0.431 0.597,0 1.073,0.062 1.43,0.184 0.355,0.123 0.61,0.237 0.763,0.345 l -0.459,0.919 c -0.176,-0.115 -0.415,-0.225 -0.717,-0.328 -0.303,-0.103 -0.66,-0.154 -1.074,-0.154 -0.527,0 -1.002,0.124 -1.423,0.373 -0.421,0.249 -0.777,0.57 -1.068,0.964 -0.29,0.395 -0.513,0.838 -0.665,1.332 -0.153,0.493 -0.229,0.981 -0.229,1.464 0,1.492 0.646,2.238 1.939,2.238 0.275,0 0.522,-0.019 0.74,-0.058 0.219,-0.038 0.412,-0.082 0.58,-0.132 0.168,-0.05 0.317,-0.104 0.448,-0.166 0.13,-0.062 0.244,-0.115 0.344,-0.161 l 0.138,0.965 c -0.092,0.053 -0.212,0.11 -0.361,0.172 -0.149,0.062 -0.323,0.119 -0.522,0.172 -0.199,0.054 -0.421,0.098 -0.666,0.132 -0.249,0.034 -0.508,0.051 -0.784,0.051 z" />
          <path
             style="fill:#ffffff"
             inkscape:connector-curvature="0"
             id="path504"
             d="m 114.351,358.242 1.905,-7.956 h 4.695 l -0.218,0.931 h -3.594 l -0.573,2.399 h 3.191 l -0.219,0.906 h -3.18 l -0.678,2.79 h 3.857 l -0.218,0.93 h -4.968 z" />
          <path
             style="fill:#ffffff"
             inkscape:connector-curvature="0"
             id="path506"
             d="m 124.3,350.206 c 0.926,0 1.625,0.176 2.095,0.528 0.471,0.352 0.706,0.865 0.706,1.538 0,0.521 -0.097,0.97 -0.292,1.349 -0.195,0.379 -0.473,0.691 -0.833,0.936 -0.359,0.245 -0.792,0.427 -1.297,0.546 -0.505,0.118 -1.067,0.178 -1.688,0.178 h -0.792 l -0.712,2.962 h -1.113 l 1.883,-7.853 c 0.321,-0.076 0.661,-0.126 1.021,-0.149 0.36,-0.023 0.701,-0.035 1.022,-0.035 z m -0.138,0.941 c -0.544,0 -0.872,0.016 -0.987,0.046 l -0.758,3.157 h 0.724 c 0.321,0 0.65,-0.029 0.987,-0.086 0.337,-0.058 0.639,-0.159 0.906,-0.305 0.269,-0.146 0.488,-0.346 0.66,-0.603 0.173,-0.256 0.259,-0.587 0.259,-0.993 0,-0.437 -0.161,-0.748 -0.482,-0.936 -0.321,-0.188 -0.758,-0.28 -1.309,-0.28 z" />
          <path
             style="fill:#ffffff"
             inkscape:connector-curvature="0"
             id="path508"
             d="m 133.916,350.286 -0.219,0.931 h -2.399 l -1.688,7.025 h -1.113 l 1.688,-7.025 h -2.399 l 0.219,-0.931 h 5.911 z" />
          <path
             style="fill:#ffffff"
             inkscape:connector-curvature="0"
             id="path510"
             d="m 132.906,358.242 1.905,-7.956 h 4.695 l -0.218,0.931 h -3.594 l -0.573,2.399 h 3.191 l -0.219,0.906 h -3.18 l -0.678,2.79 h 3.857 l -0.218,0.93 h -4.968 z" />
          <path
             style="fill:#ffffff"
             inkscape:connector-curvature="0"
             id="path512"
             d="m 142.839,350.206 c 1.179,0 2.059,0.277 2.641,0.832 0.581,0.556 0.872,1.304 0.872,2.245 0,0.658 -0.103,1.291 -0.31,1.899 -0.207,0.608 -0.528,1.146 -0.965,1.613 -0.436,0.467 -0.992,0.838 -1.67,1.113 -0.678,0.275 -1.486,0.413 -2.428,0.413 -0.321,0 -0.67,-0.016 -1.045,-0.046 -0.375,-0.03 -0.704,-0.084 -0.987,-0.16 l 1.849,-7.727 c 0.321,-0.076 0.661,-0.126 1.021,-0.149 0.36,-0.021 0.701,-0.033 1.022,-0.033 z m -0.092,0.941 c -0.574,0 -0.918,0.016 -1.033,0.046 l -1.47,6.131 c 0.062,0.015 0.165,0.028 0.311,0.04 0.146,0.011 0.383,0.017 0.712,0.017 0.604,0 1.149,-0.101 1.636,-0.304 0.485,-0.203 0.897,-0.486 1.233,-0.85 0.337,-0.363 0.598,-0.796 0.781,-1.297 0.184,-0.502 0.275,-1.051 0.275,-1.647 0,-0.674 -0.195,-1.198 -0.586,-1.573 -0.389,-0.375 -1.009,-0.563 -1.859,-0.563 z" />
          <path
             style="fill:#ffffff"
             inkscape:connector-curvature="0"
             id="path514"
             d="m 154.927,358.242 h -1.113 l 0.884,-3.696 h -3.686 l -0.884,3.696 h -1.113 l 1.905,-7.956 h 1.113 l -0.803,3.33 h 3.685 l 0.804,-3.33 h 1.113 l -1.905,7.956 z" />
          <path
             style="fill:#ffffff"
             inkscape:connector-curvature="0"
             id="path516"
             d="m 156.707,358.242 1.905,-7.956 h 4.695 l -0.218,0.931 h -3.594 l -0.573,2.399 h 3.191 l -0.219,0.906 h -3.18 l -0.678,2.79 h 3.857 l -0.218,0.93 h -4.968 z" />
          <path
             style="fill:#ffffff"
             inkscape:connector-curvature="0"
             id="path518"
             d="m 166.656,350.206 c 0.85,0 1.523,0.172 2.021,0.517 0.498,0.345 0.746,0.85 0.746,1.516 0,0.674 -0.197,1.238 -0.591,1.693 -0.395,0.455 -0.947,0.782 -1.659,0.981 0.092,0.16 0.199,0.365 0.321,0.614 0.123,0.249 0.249,0.524 0.379,0.826 0.13,0.303 0.257,0.616 0.379,0.941 0.122,0.325 0.229,0.642 0.321,0.947 h -1.137 c -0.106,-0.291 -0.218,-0.586 -0.332,-0.884 -0.115,-0.299 -0.232,-0.586 -0.351,-0.861 -0.119,-0.275 -0.237,-0.533 -0.355,-0.774 -0.119,-0.241 -0.229,-0.454 -0.327,-0.638 -0.1,0.008 -0.199,0.014 -0.299,0.018 -0.1,0.004 -0.199,0.006 -0.299,0.006 h -0.884 l -0.746,3.134 h -1.113 l 1.883,-7.853 c 0.321,-0.076 0.661,-0.126 1.021,-0.149 0.36,-0.022 0.701,-0.034 1.022,-0.034 z m -0.137,0.941 c -0.544,0 -0.872,0.016 -0.987,0.046 l -0.724,3.008 h 0.678 c 0.313,0 0.635,-0.022 0.965,-0.068 0.328,-0.047 0.629,-0.137 0.9,-0.271 0.271,-0.134 0.494,-0.321 0.666,-0.562 0.172,-0.241 0.259,-0.561 0.259,-0.958 0,-0.429 -0.163,-0.735 -0.488,-0.919 -0.325,-0.184 -0.749,-0.276 -1.269,-0.276 z" />
          <path
             style="fill:#ffffff"
             inkscape:connector-curvature="0"
             id="path520"
             d="m 169.53,358.242 1.905,-7.956 h 4.695 l -0.218,0.931 h -3.594 l -0.573,2.399 h 3.191 l -0.219,0.906 h -3.18 l -0.678,2.79 h 3.857 l -0.218,0.93 h -4.968 z" />
        </g>
        <g
           id="g522">
          <g
             id="g524">
            <g
               id="g526">
              <g
                 id="g528">
                <g
                   id="g530">
                  <circle
                     style="fill:#f7931a"
                     sodipodi:ry="15.301"
                     sodipodi:rx="15.301"
                     sodipodi:cy="328.29401"
                     sodipodi:cx="49.608002"
                     d="m 64.909001,328.29401 c 0,8.45051 -6.850491,15.301 -15.300999,15.301 -8.450509,0 -15.301,-6.85049 -15.301,-15.301 0,-8.45051 6.850491,-15.301 15.301,-15.301 8.450508,0 15.300999,6.85049 15.300999,15.301 z"
                     id="circle532"
                     r="15.301"
                     cy="328.29401"
                     cx="49.608002" />
                  <g
                     id="g534">
                    <g
                       id="g536">
                      <path
                         style="fill:#ffffff"
                         inkscape:connector-curvature="0"
                         id="path538"
                         d="m 56.354,326.113 c 0.305,-2.037 -1.246,-3.132 -3.366,-3.862 l 0.688,-2.76 -1.679,-0.419 -0.672,2.687 c -0.44,-0.109 -0.894,-0.213 -1.345,-0.316 l 0.674,-2.704 -1.678,-0.419 -0.689,2.759 c -0.363,-0.083 -0.723,-0.165 -1.071,-0.252 l 10e-4,-0.008 -2.315,-0.578 -0.446,1.793 c 0,0 1.246,0.285 1.219,0.303 0.681,0.171 0.804,0.621 0.784,0.979 l -0.785,3.143 c 0.047,0.011 0.108,0.028 0.175,0.056 -0.056,-0.015 -0.115,-0.03 -0.178,-0.045 l -1.097,4.404 c -0.084,0.206 -0.296,0.516 -0.771,0.398 0.017,0.023 -1.221,-0.305 -1.221,-0.305 l -0.834,1.922 2.186,0.546 c 0.405,0.101 0.806,0.208 1.197,0.308 l -0.694,2.791 1.677,0.419 0.688,-2.761 c 0.458,0.123 0.902,0.239 1.338,0.348 l -0.686,2.748 1.68,0.419 0.695,-2.786 c 2.864,0.542 5.017,0.323 5.923,-2.268 0.73,-2.085 -0.035,-3.288 -1.543,-4.073 1.098,-0.255 1.924,-0.976 2.145,-2.467 z m -3.836,5.381 c -0.519,2.086 -4.029,0.958 -5.17,0.675 l 0.923,-3.696 c 1.137,0.283 4.789,0.845 4.247,3.021 z m 0.518,-5.411 c -0.474,1.896 -3.396,0.933 -4.343,0.697 l 0.835,-3.354 c 0.949,0.237 4.002,0.678 3.508,2.657 z" />
                    </g>
                  </g>
                </g>
              </g>
              <g
                 id="g540">
                <path
                   style="fill:#4d4d4d"
                   inkscape:connector-curvature="0"
                   id="path542"
                   d="m 79.157,322.249 c 1.241,0 2.312,0.223 3.214,0.659 0.905,0.441 1.653,1.036 2.253,1.782 0.591,0.752 1.032,1.63 1.315,2.636 0.281,1.009 0.424,2.094 0.424,3.255 0,1.782 -0.326,3.467 -0.986,5.056 -0.659,1.59 -1.555,2.97 -2.693,4.146 -1.137,1.176 -2.48,2.102 -4.029,2.786 -1.547,0.686 -3.228,1.027 -5.033,1.027 -0.234,0 -0.644,-0.006 -1.223,-0.019 -0.582,-0.012 -1.247,-0.071 -1.994,-0.172 -0.75,-0.105 -1.545,-0.26 -2.383,-0.467 -0.838,-0.205 -1.634,-0.49 -2.383,-0.853 l 6.702,-28.163 6.003,-0.931 -2.4,9.994 c 0.515,-0.232 1.03,-0.411 1.549,-0.542 0.517,-0.127 1.07,-0.194 1.664,-0.194 z m -5.035,16.584 c 0.903,0 1.755,-0.222 2.556,-0.659 0.803,-0.437 1.496,-1.026 2.075,-1.762 0.58,-0.737 1.04,-1.569 1.375,-2.5 0.334,-0.928 0.503,-1.898 0.503,-2.908 0,-1.238 -0.206,-2.205 -0.619,-2.903 -0.412,-0.696 -1.177,-1.046 -2.286,-1.046 -0.364,0 -0.832,0.069 -1.412,0.193 -0.583,0.132 -1.104,0.404 -1.572,0.814 l -2.555,10.614 c 0.154,0.026 0.291,0.053 0.406,0.076 0.113,0.026 0.239,0.046 0.364,0.059 0.133,0.015 0.284,0.021 0.468,0.021 0.182,0.001 0.412,0.001 0.697,0.001 z" />
                <path
                   style="fill:#4d4d4d"
                   inkscape:connector-curvature="0"
                   id="path544"
                   d="m 92.589,343.054 h -5.733 l 4.842,-20.375 h 5.774 l -4.883,20.375 z m 2.791,-22.857 c -0.8,0 -1.525,-0.239 -2.17,-0.715 -0.648,-0.476 -0.97,-1.206 -0.97,-2.19 0,-0.542 0.11,-1.05 0.327,-1.529 0.222,-0.478 0.512,-0.891 0.874,-1.24 0.362,-0.348 0.781,-0.625 1.257,-0.834 0.48,-0.205 0.99,-0.309 1.532,-0.309 0.801,0 1.523,0.239 2.17,0.716 0.644,0.479 0.968,1.21 0.968,2.189 0,0.543 -0.11,1.054 -0.331,1.532 -0.218,0.478 -0.508,0.89 -0.87,1.24 -0.359,0.347 -0.782,0.624 -1.258,0.831 -0.479,0.21 -0.987,0.309 -1.529,0.309 z" />
                <path
                   style="fill:#4d4d4d"
                   inkscape:connector-curvature="0"
                   id="path546"
                   d="m 102.495,317.604 6.007,-0.93 -1.476,6.005 h 6.433 l -1.162,4.726 h -6.393 l -1.702,7.128 c -0.158,0.595 -0.246,1.149 -0.272,1.664 -0.027,0.519 0.038,0.963 0.192,1.338 0.155,0.375 0.432,0.664 0.833,0.87 0.4,0.207 0.974,0.312 1.724,0.312 0.618,0 1.222,-0.058 1.805,-0.175 0.579,-0.114 1.165,-0.275 1.76,-0.484 l 0.427,4.418 c -0.774,0.285 -1.613,0.53 -2.518,0.735 -0.906,0.207 -1.977,0.309 -3.216,0.309 -1.782,0 -3.164,-0.264 -4.146,-0.791 -0.982,-0.53 -1.678,-1.255 -2.094,-2.173 -0.409,-0.914 -0.593,-1.968 -0.541,-3.155 0.052,-1.19 0.231,-2.441 0.541,-3.758 l 3.798,-16.039 z" />
                <path
                   style="fill:#4d4d4d"
                   inkscape:connector-curvature="0"
                   id="path548"
                   d="m 113.205,334.921 c 0,-1.756 0.283,-3.41 0.852,-4.96 0.567,-1.551 1.384,-2.906 2.443,-4.07 1.057,-1.158 2.342,-2.075 3.855,-2.749 1.508,-0.67 3.194,-1.008 5.054,-1.008 1.163,0 2.203,0.109 3.117,0.33 0.92,0.223 1.75,0.51 2.5,0.87 l -1.978,4.498 c -0.516,-0.21 -1.051,-0.395 -1.606,-0.562 -0.556,-0.17 -1.232,-0.252 -2.033,-0.252 -1.914,0 -3.427,0.659 -4.553,1.974 -1.122,1.317 -1.688,3.087 -1.688,5.31 0,1.317 0.285,2.381 0.855,3.195 0.566,0.814 1.614,1.22 3.137,1.22 0.751,0 1.475,-0.078 2.17,-0.231 0.699,-0.155 1.316,-0.35 1.859,-0.581 l 0.429,4.609 c -0.725,0.282 -1.524,0.536 -2.402,0.759 -0.88,0.215 -1.926,0.325 -3.14,0.325 -1.603,0 -2.957,-0.234 -4.067,-0.695 -1.109,-0.469 -2.027,-1.091 -2.749,-1.879 -0.726,-0.791 -1.248,-1.714 -1.57,-2.773 -0.322,-1.06 -0.485,-2.171 -0.485,-3.33 z" />
                <path
                   style="fill:#4d4d4d"
                   inkscape:connector-curvature="0"
                   id="path550"
                   d="m 138.676,343.597 c -1.369,0 -2.559,-0.207 -3.566,-0.621 -1.005,-0.412 -1.837,-0.991 -2.497,-1.742 -0.659,-0.748 -1.152,-1.634 -1.49,-2.654 -0.338,-1.019 -0.501,-2.147 -0.501,-3.386 0,-1.552 0.249,-3.104 0.753,-4.652 0.501,-1.55 1.244,-2.942 2.229,-4.181 0.977,-1.241 2.182,-2.256 3.6,-3.046 1.418,-0.786 3.048,-1.181 4.879,-1.181 1.344,0 2.525,0.209 3.548,0.621 1.019,0.413 1.856,0.997 2.52,1.743 0.654,0.752 1.152,1.634 1.486,2.655 0.339,1.018 0.505,2.15 0.505,3.388 0,1.548 -0.247,3.101 -0.733,4.652 -0.489,1.545 -1.213,2.941 -2.17,4.183 -0.954,1.238 -2.148,2.252 -3.584,3.039 -1.432,0.787 -3.093,1.182 -4.979,1.182 z m 2.864,-16.579 c -0.85,0 -1.602,0.247 -2.244,0.733 -0.646,0.493 -1.188,1.113 -1.625,1.861 -0.442,0.749 -0.771,1.569 -0.992,2.459 -0.219,0.893 -0.327,1.735 -0.327,2.538 0,1.291 0.209,2.299 0.619,3.023 0.416,0.721 1.161,1.083 2.247,1.083 0.854,0 1.602,-0.244 2.248,-0.737 0.643,-0.489 1.185,-1.11 1.626,-1.858 0.438,-0.747 0.77,-1.569 0.991,-2.46 0.218,-0.89 0.327,-1.738 0.327,-2.538 0,-1.289 -0.207,-2.298 -0.622,-3.021 -0.413,-0.721 -1.162,-1.083 -2.248,-1.083 z" />
                <path
                   style="fill:#4d4d4d"
                   inkscape:connector-curvature="0"
                   id="path552"
                   d="m 156.39,343.054 h -5.739 l 4.844,-20.375 h 5.775 l -4.88,20.375 z m 2.785,-22.857 c -0.8,0 -1.524,-0.239 -2.167,-0.715 -0.646,-0.476 -0.97,-1.206 -0.97,-2.19 0,-0.542 0.11,-1.05 0.33,-1.529 0.218,-0.478 0.51,-0.891 0.872,-1.24 0.359,-0.348 0.784,-0.625 1.258,-0.834 0.478,-0.205 0.987,-0.309 1.528,-0.309 0.803,0 1.527,0.239 2.172,0.716 0.646,0.479 0.971,1.21 0.971,2.189 0,0.543 -0.115,1.054 -0.333,1.532 -0.216,0.478 -0.507,0.89 -0.869,1.24 -0.362,0.347 -0.781,0.624 -1.258,0.831 -0.48,0.21 -0.988,0.309 -1.534,0.309 z" />
                <path
                   style="fill:#4d4d4d"
                   inkscape:connector-curvature="0"
                   id="path554"
                   d="m 165.399,323.607 c 0.435,-0.128 0.921,-0.28 1.449,-0.447 0.531,-0.165 1.123,-0.321 1.786,-0.461 0.654,-0.144 1.395,-0.26 2.207,-0.351 0.813,-0.093 1.738,-0.138 2.767,-0.138 3.025,0 5.108,0.881 6.261,2.638 1.15,1.755 1.349,4.158 0.603,7.204 l -2.638,11.001 h -5.772 l 2.557,-10.769 c 0.156,-0.673 0.278,-1.323 0.369,-1.958 0.091,-0.629 0.085,-1.185 -0.021,-1.664 -0.103,-0.476 -0.343,-0.863 -0.716,-1.164 -0.378,-0.297 -0.949,-0.444 -1.725,-0.444 -0.748,0 -1.509,0.081 -2.284,0.235 l -3.759,15.764 h -5.774 l 4.69,-19.446 z" />
              </g>
            </g>
            <g
               id="g556">
              <path
                 style="fill:#4d4d4d"
                 inkscape:connector-curvature="0"
                 id="path558"
                 d="m 95.88,355.199 -1.125,2.043 h -1.217 c 0.857,-1.546 1.693,-2.97 2.509,-4.271 0.814,-1.301 1.62,-2.529 2.416,-3.686 h 1.091 c 0.115,0.574 0.22,1.154 0.315,1.739 0.096,0.586 0.189,1.2 0.281,1.843 0.092,0.643 0.18,1.324 0.265,2.044 0.084,0.719 0.172,1.496 0.264,2.33 h -1.125 c -0.038,-0.345 -0.073,-0.69 -0.104,-1.039 -0.03,-0.348 -0.065,-0.683 -0.104,-1.004 H 95.88 z m 3.364,-0.895 c -0.062,-0.62 -0.133,-1.236 -0.213,-1.849 -0.08,-0.613 -0.174,-1.244 -0.281,-1.895 -0.268,0.391 -0.601,0.894 -0.999,1.51 -0.397,0.616 -0.85,1.36 -1.354,2.233 h 2.847 z" />
              <path
                 style="fill:#4d4d4d"
                 inkscape:connector-curvature="0"
                 id="path560"
                 d="m 104.771,357.414 c -0.498,0 -0.936,-0.072 -1.314,-0.218 -0.378,-0.146 -0.694,-0.352 -0.947,-0.62 -0.253,-0.268 -0.442,-0.591 -0.568,-0.97 -0.126,-0.379 -0.189,-0.806 -0.189,-1.28 0,-0.688 0.109,-1.347 0.327,-1.975 0.219,-0.627 0.528,-1.183 0.93,-1.664 0.402,-0.482 0.886,-0.867 1.453,-1.154 0.565,-0.287 1.197,-0.431 1.894,-0.431 0.597,0 1.073,0.062 1.43,0.184 0.355,0.123 0.61,0.237 0.763,0.345 l -0.459,0.919 c -0.176,-0.115 -0.415,-0.225 -0.717,-0.328 -0.303,-0.103 -0.66,-0.154 -1.074,-0.154 -0.527,0 -1.002,0.124 -1.423,0.373 -0.421,0.249 -0.777,0.57 -1.068,0.964 -0.29,0.395 -0.513,0.838 -0.665,1.332 -0.153,0.493 -0.229,0.981 -0.229,1.464 0,1.492 0.646,2.238 1.939,2.238 0.275,0 0.522,-0.019 0.74,-0.058 0.219,-0.038 0.412,-0.082 0.58,-0.132 0.168,-0.05 0.317,-0.104 0.448,-0.166 0.13,-0.062 0.244,-0.115 0.344,-0.161 l 0.138,0.965 c -0.092,0.053 -0.212,0.11 -0.361,0.172 -0.149,0.062 -0.323,0.119 -0.522,0.172 -0.199,0.054 -0.421,0.098 -0.666,0.132 -0.249,0.034 -0.509,0.051 -0.784,0.051 z" />
              <path
                 style="fill:#4d4d4d"
                 inkscape:connector-curvature="0"
                 id="path562"
                 d="m 111.244,357.414 c -0.498,0 -0.936,-0.072 -1.314,-0.218 -0.378,-0.146 -0.694,-0.352 -0.947,-0.62 -0.253,-0.268 -0.442,-0.591 -0.568,-0.97 -0.126,-0.379 -0.189,-0.806 -0.189,-1.28 0,-0.688 0.109,-1.347 0.327,-1.975 0.219,-0.627 0.528,-1.183 0.93,-1.664 0.402,-0.482 0.886,-0.867 1.453,-1.154 0.565,-0.287 1.197,-0.431 1.894,-0.431 0.597,0 1.073,0.062 1.43,0.184 0.355,0.123 0.61,0.237 0.763,0.345 l -0.459,0.919 c -0.176,-0.115 -0.415,-0.225 -0.717,-0.328 -0.303,-0.103 -0.66,-0.154 -1.074,-0.154 -0.527,0 -1.002,0.124 -1.423,0.373 -0.421,0.249 -0.777,0.57 -1.068,0.964 -0.29,0.395 -0.513,0.838 -0.665,1.332 -0.153,0.493 -0.229,0.981 -0.229,1.464 0,1.492 0.646,2.238 1.939,2.238 0.275,0 0.522,-0.019 0.74,-0.058 0.219,-0.038 0.412,-0.082 0.58,-0.132 0.168,-0.05 0.317,-0.104 0.448,-0.166 0.13,-0.062 0.244,-0.115 0.344,-0.161 l 0.138,0.965 c -0.092,0.053 -0.212,0.11 -0.361,0.172 -0.149,0.062 -0.323,0.119 -0.522,0.172 -0.199,0.054 -0.421,0.098 -0.666,0.132 -0.249,0.034 -0.508,0.051 -0.784,0.051 z" />
              <path
                 style="fill:#4d4d4d"
                 inkscape:connector-curvature="0"
                 id="path564"
                 d="m 114.351,357.242 1.905,-7.956 h 4.695 l -0.218,0.931 h -3.594 l -0.573,2.399 h 3.191 l -0.219,0.906 h -3.18 l -0.678,2.79 h 3.857 l -0.218,0.93 h -4.968 z" />
              <path
                 style="fill:#4d4d4d"
                 inkscape:connector-curvature="0"
                 id="path566"
                 d="m 124.3,349.206 c 0.926,0 1.625,0.176 2.095,0.528 0.471,0.352 0.706,0.865 0.706,1.538 0,0.521 -0.097,0.97 -0.292,1.349 -0.195,0.379 -0.473,0.691 -0.833,0.936 -0.359,0.245 -0.792,0.427 -1.297,0.546 -0.505,0.118 -1.067,0.178 -1.688,0.178 h -0.792 l -0.712,2.962 h -1.113 l 1.883,-7.853 c 0.321,-0.076 0.661,-0.126 1.021,-0.149 0.36,-0.023 0.701,-0.035 1.022,-0.035 z m -0.138,0.941 c -0.544,0 -0.872,0.016 -0.987,0.046 l -0.758,3.157 h 0.724 c 0.321,0 0.65,-0.029 0.987,-0.086 0.337,-0.058 0.639,-0.159 0.906,-0.305 0.269,-0.146 0.488,-0.346 0.66,-0.603 0.173,-0.256 0.259,-0.587 0.259,-0.993 0,-0.437 -0.161,-0.748 -0.482,-0.936 -0.321,-0.188 -0.758,-0.28 -1.309,-0.28 z" />
              <path
                 style="fill:#4d4d4d"
                 inkscape:connector-curvature="0"
                 id="path568"
                 d="m 133.916,349.286 -0.219,0.931 h -2.399 l -1.688,7.025 h -1.113 l 1.688,-7.025 h -2.399 l 0.219,-0.931 h 5.911 z" />
              <path
                 style="fill:#4d4d4d"
                 inkscape:connector-curvature="0"
                 id="path570"
                 d="m 132.906,357.242 1.905,-7.956 h 4.695 l -0.218,0.931 h -3.594 l -0.573,2.399 h 3.191 l -0.219,0.906 h -3.18 l -0.678,2.79 h 3.857 l -0.218,0.93 h -4.968 z" />
              <path
                 style="fill:#4d4d4d"
                 inkscape:connector-curvature="0"
                 id="path572"
                 d="m 142.839,349.206 c 1.179,0 2.059,0.277 2.641,0.832 0.581,0.556 0.872,1.304 0.872,2.245 0,0.658 -0.103,1.291 -0.31,1.899 -0.207,0.608 -0.528,1.146 -0.965,1.613 -0.436,0.467 -0.992,0.838 -1.67,1.113 -0.678,0.275 -1.486,0.413 -2.428,0.413 -0.321,0 -0.67,-0.016 -1.045,-0.046 -0.375,-0.03 -0.704,-0.084 -0.987,-0.16 l 1.849,-7.727 c 0.321,-0.076 0.661,-0.126 1.021,-0.149 0.36,-0.021 0.701,-0.033 1.022,-0.033 z m -0.092,0.941 c -0.574,0 -0.918,0.016 -1.033,0.046 l -1.47,6.131 c 0.062,0.015 0.165,0.028 0.311,0.04 0.146,0.011 0.383,0.017 0.712,0.017 0.604,0 1.149,-0.101 1.636,-0.304 0.485,-0.203 0.897,-0.486 1.233,-0.85 0.337,-0.363 0.598,-0.796 0.781,-1.297 0.184,-0.502 0.275,-1.051 0.275,-1.647 0,-0.674 -0.195,-1.198 -0.586,-1.573 -0.389,-0.375 -1.009,-0.563 -1.859,-0.563 z" />
              <path
                 style="fill:#4d4d4d"
                 inkscape:connector-curvature="0"
                 id="path574"
                 d="m 154.927,357.242 h -1.113 l 0.884,-3.696 h -3.686 l -0.884,3.696 h -1.113 l 1.905,-7.956 h 1.113 l -0.803,3.33 h 3.685 l 0.804,-3.33 h 1.113 l -1.905,7.956 z" />
              <path
                 style="fill:#4d4d4d"
                 inkscape:connector-curvature="0"
                 id="path576"
                 d="m 156.707,357.242 1.905,-7.956 h 4.695 l -0.218,0.931 h -3.594 l -0.573,2.399 h 3.191 l -0.219,0.906 h -3.18 l -0.678,2.79 h 3.857 l -0.218,0.93 h -4.968 z" />
              <path
                 style="fill:#4d4d4d"
                 inkscape:connector-curvature="0"
                 id="path578"
                 d="m 166.656,349.206 c 0.85,0 1.523,0.172 2.021,0.517 0.498,0.345 0.746,0.85 0.746,1.516 0,0.674 -0.197,1.238 -0.591,1.693 -0.395,0.455 -0.947,0.782 -1.659,0.981 0.092,0.16 0.199,0.365 0.321,0.614 0.123,0.249 0.249,0.524 0.379,0.826 0.13,0.303 0.257,0.616 0.379,0.941 0.122,0.325 0.229,0.642 0.321,0.947 h -1.137 c -0.106,-0.291 -0.218,-0.586 -0.332,-0.884 -0.115,-0.299 -0.232,-0.586 -0.351,-0.861 -0.119,-0.275 -0.237,-0.533 -0.355,-0.774 -0.119,-0.241 -0.229,-0.454 -0.327,-0.638 -0.1,0.008 -0.199,0.014 -0.299,0.018 -0.1,0.004 -0.199,0.006 -0.299,0.006 h -0.884 l -0.746,3.134 h -1.113 l 1.883,-7.853 c 0.321,-0.076 0.661,-0.126 1.021,-0.149 0.36,-0.022 0.701,-0.034 1.022,-0.034 z m -0.137,0.941 c -0.544,0 -0.872,0.016 -0.987,0.046 l -0.724,3.008 h 0.678 c 0.313,0 0.635,-0.022 0.965,-0.068 0.328,-0.047 0.629,-0.137 0.9,-0.271 0.271,-0.134 0.494,-0.321 0.666,-0.562 0.172,-0.241 0.259,-0.561 0.259,-0.958 0,-0.429 -0.163,-0.735 -0.488,-0.919 -0.325,-0.184 -0.749,-0.276 -1.269,-0.276 z" />
              <path
                 style="fill:#4d4d4d"
                 inkscape:connector-curvature="0"
                 id="path580"
                 d="m 169.53,357.242 1.905,-7.956 h 4.695 l -0.218,0.931 h -3.594 l -0.573,2.399 h 3.191 l -0.219,0.906 h -3.18 l -0.678,2.79 h 3.857 l -0.218,0.93 h -4.968 z" />
            </g>
          </g>
        </g>
      </g>
    </g>
  </g>
</svg>
